<svg width="1768" height="791" viewBox="0 0 1768 791" fill="none" xmlns="http://www.w3.org/2000/svg">
<rect width="1768" height="791" rx="56" fill="#060039"/>
<g clip-path="url(#clip0)">
<rect width="1600" height="1200" transform="matrix(-0.529919 -0.848048 -0.848048 0.529919 340.466 678)" fill="#060039"/>
<mask id="mask0" mask-type="alpha" maskUnits="userSpaceOnUse" x="-1526" y="-679" width="1867" height="1993">
<rect width="1600" height="1200" transform="matrix(-0.529919 -0.848048 -0.848048 0.529919 340.466 678)" fill="#060039"/>
</mask>
<g mask="url(#mask0)">
<path d="M74.1085 181.74C45.9629 199.328 8.91073 190.804 -8.64919 162.702C-26.2091 134.6 -17.6274 97.5617 10.5182 79.9744L68.1058 43.9897" stroke="#44AB96" stroke-width="13" stroke-linecap="round" stroke-linejoin="round"/>
<path d="M288.552 396.778L392.614 563.311C412.991 595.922 403.692 638.492 371.843 658.393" stroke="#44AB96" stroke-width="13" stroke-linecap="round" stroke-linejoin="round"/>
<path fill-rule="evenodd" clip-rule="evenodd" d="M61.4783 635.362C43.0403 605.855 52.0134 566.988 81.5204 548.55C111.027 530.112 149.894 539.085 168.332 568.592C186.77 598.099 177.797 636.966 148.29 655.404C118.783 673.842 79.9162 664.869 61.4783 635.362Z" stroke="#44AB96" stroke-width="13" stroke-linecap="round" stroke-linejoin="round"/>
<path d="M-1.54225 674.152C-42.6616 608.347 -23.4098 522.142 41.4587 481.607C106.327 441.073 192.248 461.56 233.367 527.364C274.486 593.169 255.235 679.374 190.366 719.909" stroke="#FFB017" stroke-width="13" stroke-linecap="round" stroke-linejoin="round"/>
<path d="M181.283 369.473C145.453 391.861 98.376 381.155 76.1335 345.56C53.8909 309.964 64.9057 262.958 100.735 240.569C136.565 218.18 183.642 228.887 205.885 264.482L246.159 328.934" stroke="#E53855" stroke-width="13" stroke-linecap="round" stroke-linejoin="round"/>
<path d="M-85.0529 870.195C-68.2246 897.126 -76.0897 932.397 -102.621 948.975C-129.153 965.554 -164.302 957.161 -181.13 930.231C-197.958 903.3 -190.093 868.029 -163.562 851.45L32.6375 728.851" stroke="#DA774A" stroke-width="13" stroke-linecap="round" stroke-linejoin="round"/>
<path d="M-323.608 15.1901L-330.213 19.3173C-367.813 42.8129 -379.196 92.4245 -355.636 130.128V130.128C-332.077 167.831 -282.496 179.349 -244.896 155.853L-37.6007 26.3207C0.00011778 2.82516 11.3826 -46.7864 -12.177 -84.4896V-84.4896C-35.7366 -122.193 -85.3169 -133.711 -122.918 -110.215L-124.95 -108.945" stroke="#FFB017" stroke-width="13" stroke-linecap="round" stroke-linejoin="round"/>
<path d="M-99.4905 156.97L-28.1203 271.186C17.0437 343.463 -5.19457 438.83 -77.7913 484.193" stroke="#44AB96" stroke-width="13" stroke-linecap="round" stroke-linejoin="round"/>
<path d="M130.314 756.844C122.416 761.779 22.9953 823.904 -25.7271 854.349" stroke="#44AB96" stroke-width="13" stroke-linecap="round" stroke-linejoin="round"/>
</g>
</g>
<g clip-path="url(#clip1)">
<rect width="1600" height="1200" transform="matrix(-0.48481 -0.87462 -0.87462 0.48481 2579.93 713)" fill="#060039"/>
<mask id="mask1" mask-type="alpha" maskUnits="userSpaceOnUse" x="754" y="-687" width="1826" height="1982">
<rect width="1600" height="1200" transform="matrix(-0.48481 -0.87462 -0.87462 0.48481 2579.93 713)" fill="#060039"/>
</mask>
<g mask="url(#mask1)">
<path d="M1496.2 544.244C1494.46 541.104 1495.6 537.148 1498.74 535.407C1501.88 533.667 1505.83 534.801 1507.57 537.941L1496.2 544.244ZM1404.8 715.394C1403.06 712.254 1404.19 708.298 1407.33 706.558C1410.47 704.818 1414.43 705.952 1416.17 709.092L1404.8 715.394ZM1254.15 1028.47C1252.41 1025.33 1253.54 1021.37 1256.68 1019.63C1259.82 1017.89 1263.78 1019.02 1265.52 1022.16L1254.15 1028.47ZM1333.09 747.104C1336.23 745.363 1340.18 746.498 1341.92 749.638C1343.66 752.777 1342.53 756.733 1339.39 758.474L1333.09 747.104ZM1966.25 600.1C1969.39 598.36 1973.35 599.494 1975.09 602.634C1976.83 605.774 1975.7 609.73 1972.56 611.47L1966.25 600.1ZM1580.4 505.006C1577.26 506.747 1573.3 505.612 1571.56 502.473C1569.82 499.333 1570.95 495.377 1574.09 493.636L1580.4 505.006ZM1507.57 537.941L1594.57 694.88L1583.2 701.183L1496.2 544.244L1507.57 537.941ZM1594.57 694.88C1618.22 737.549 1603 791.268 1560.49 814.835L1554.19 803.465C1590.37 783.41 1603.4 737.629 1583.2 701.183L1594.57 694.88ZM1560.49 814.835C1517.97 838.402 1464.35 822.837 1440.7 780.168L1452.07 773.866C1472.28 810.312 1518.01 823.52 1554.19 803.465L1560.49 814.835ZM1440.7 780.168L1404.8 715.394L1416.17 709.092L1452.07 773.866L1440.7 780.168ZM1265.52 1022.16L1270.7 1031.52L1259.33 1037.82L1254.15 1028.47L1265.52 1022.16ZM1270.7 1031.52C1284.26 1055.98 1315.11 1064.81 1339.6 1051.23L1345.9 1062.6C1315.14 1079.65 1276.38 1068.57 1259.33 1037.82L1270.7 1031.52ZM1339.6 1051.23C1364.1 1037.65 1372.96 1006.81 1359.41 982.351L1370.78 976.048C1387.82 1006.8 1376.67 1045.55 1345.9 1062.6L1339.6 1051.23ZM1359.41 982.351L1297.55 870.767L1308.92 864.465L1370.78 976.048L1359.41 982.351ZM1297.55 870.767C1273.2 826.837 1289.12 771.475 1333.09 747.104L1339.39 758.474C1301.69 779.371 1288.06 826.827 1308.92 864.465L1297.55 870.767ZM1972.56 611.47L1916.33 642.636L1910.03 631.266L1966.25 600.1L1972.56 611.47ZM1916.33 642.636C1844.71 682.336 1754.5 656.53 1714.83 584.977L1726.2 578.674C1762.38 643.936 1844.68 667.492 1910.03 631.266L1916.33 642.636ZM1714.83 584.977L1687.49 535.643L1698.86 529.34L1726.2 578.674L1714.83 584.977ZM1687.49 535.643C1666.41 497.627 1618.47 483.901 1580.4 505.006L1574.09 493.636C1618.44 469.057 1674.3 485.033 1698.86 529.34L1687.49 535.643Z" fill="#DA774A"/>
<path fill-rule="evenodd" clip-rule="evenodd" d="M1238.35 658.592C1222.82 630.576 1232.74 595.383 1260.52 579.988C1288.29 564.592 1323.4 574.823 1338.93 602.839C1354.46 630.855 1344.53 666.048 1316.76 681.443C1288.98 696.839 1253.88 686.608 1238.35 658.592Z" stroke="#E53855" stroke-width="13" stroke-linecap="round" stroke-linejoin="round"/>
<path d="M1372.45 831.417C1370.71 828.278 1371.84 824.321 1374.98 822.581C1378.12 820.841 1382.08 821.975 1383.82 825.115L1372.45 831.417ZM1660.63 815.122C1662.51 812.067 1666.52 811.119 1669.57 813.005C1672.63 814.89 1673.57 818.895 1671.69 821.95L1660.63 815.122ZM1617.08 575.568C1615.34 572.428 1616.48 568.472 1619.62 566.732C1622.75 564.991 1626.71 566.126 1628.45 569.266L1617.08 575.568ZM1696.18 758.835C1695.62 762.382 1692.3 764.806 1688.75 764.249C1685.2 763.693 1682.78 760.366 1683.34 756.82L1696.18 758.835ZM1383.82 825.115C1423 895.804 1518.18 919.088 1596.92 875.439L1603.22 886.809C1519.2 933.387 1415.64 909.338 1372.45 831.417L1383.82 825.115ZM1596.92 875.439C1624.2 860.317 1645.76 839.202 1660.63 815.122L1671.69 821.95C1655.66 847.92 1632.46 870.602 1603.22 886.809L1596.92 875.439ZM1628.45 569.266L1679.26 660.923L1667.89 667.226L1617.08 575.568L1628.45 569.266ZM1679.26 660.923C1696.26 691.598 1701.36 725.839 1696.18 758.835L1683.34 756.82C1688.1 726.496 1683.4 695.209 1667.89 667.226L1679.26 660.923Z" fill="#DA774A"/>
<path d="M1652.4 -18.5449C1637 -46.32 1602.12 -56.4177 1574.49 -41.099C1546.85 -25.7803 1536.93 9.15301 1552.32 36.9281C1567.72 64.7032 1602.6 74.801 1630.24 59.4822L1817.22 -44.1647" stroke="#DA774A" stroke-width="13" stroke-linecap="round" stroke-linejoin="round"/>
<path fill-rule="evenodd" clip-rule="evenodd" d="M1781.65 850.793C1797.58 879.534 1833.75 889.94 1862.44 874.035L2010.43 792.006C2039.12 776.101 2049.47 739.909 2033.54 711.168V711.168C2017.61 682.427 1981.43 672.021 1952.74 687.926L1804.75 769.956C1776.06 785.86 1765.72 822.052 1781.65 850.793V850.793Z" stroke="#FFB017" stroke-width="13" stroke-linecap="round" stroke-linejoin="round"/>
<path d="M1575.46 323.091L1653.59 279.781C1675.89 267.42 1683.88 239.191 1671.43 216.73V216.73C1658.98 194.268 1630.81 186.08 1608.51 198.441L1452.24 285.061C1429.94 297.423 1421.95 325.652 1434.4 348.113V348.113V348.113C1446.86 370.574 1475.03 378.762 1497.33 366.401L1516.2 355.937" stroke="#E53855" stroke-width="13" stroke-linecap="round" stroke-linejoin="round"/>
<path d="M1731.3 324.745L1528.71 437.045C1468.15 470.611 1391.6 448.287 1357.73 387.183C1323.86 326.078 1345.49 249.333 1406.05 215.766L1453.92 189.234" stroke="#44AB96" stroke-width="13" stroke-linecap="round" stroke-linejoin="round"/>
<path d="M1511.59 736.944L1410.85 555.197C1372.51 486.026 1285.04 461.209 1215.48 499.765C1145.92 538.319 1120.62 625.651 1158.96 694.822L1189.26 749.498" stroke="#44AB96" stroke-width="13" stroke-linecap="round" stroke-linejoin="round"/>
<path d="M1775.44 488.935L1799.28 531.954C1815.3 560.846 1851.77 571.245 1880.76 555.18C1909.74 539.115 1920.25 502.669 1904.24 473.777L1856.54 387.738C1840.53 358.846 1804.05 348.447 1775.07 364.512L1770.41 367.097C1744 381.735 1734.42 414.942 1749.01 441.268" stroke="#4484AB" stroke-width="13" stroke-linecap="round" stroke-linejoin="round"/>
<path d="M1731.62 -62.4579L1704.38 -111.595C1686.09 -144.594 1696.52 -185.348 1727.68 -202.618C1758.83 -219.888 1798.92 -207.134 1817.21 -174.136L1871.68 -75.861C1889.98 -42.8604 1879.55 -2.10778 1848.39 15.1621" stroke="#44AB96" stroke-width="13" stroke-linecap="round" stroke-linejoin="round"/>
<path d="M1802.33 289.944L1754.64 203.905C1722.61 146.12 1743.64 73.2295 1801.6 41.0994" stroke="#4484AB" stroke-width="13" stroke-linecap="round" stroke-linejoin="round"/>
<path d="M1250.3 -60.3427L1203.28 -34.2817C1155.83 -7.97657 1138.69 51.8332 1165.01 99.3127L1202.2 166.407" stroke="#4484AB" stroke-width="13" stroke-linecap="round" stroke-linejoin="round"/>
<path d="M1489.84 72.709C1483.11 76.4386 1398.4 123.39 1356.89 146.4" stroke="#44AB96" stroke-width="13" stroke-linecap="round" stroke-linejoin="round"/>
<path d="M1558.32 -137.898C1561.46 -139.638 1565.41 -138.504 1567.15 -135.364C1568.9 -132.224 1567.76 -128.268 1564.62 -126.528L1558.32 -137.898ZM1297.18 145.111C1298.92 148.251 1297.78 152.207 1294.64 153.948C1291.5 155.688 1287.55 154.554 1285.81 151.414L1297.18 145.111ZM1260.73 353.484C1262.47 356.624 1261.34 360.58 1258.2 362.32C1255.06 364.06 1251.1 362.926 1249.36 359.786L1260.73 353.484ZM1277.86 191.397C1281 189.656 1284.96 190.791 1286.7 193.931C1288.44 197.07 1287.3 201.026 1284.16 202.767L1277.86 191.397ZM1564.62 -126.528L1440.14 -57.5244L1433.83 -68.8945L1558.32 -137.898L1564.62 -126.528ZM1440.14 -57.5244C1423.73 -48.4318 1417.8 -27.6116 1427.03 -10.9675L1415.66 -4.665C1403 -27.5003 1411.06 -56.2724 1433.83 -68.8945L1440.14 -57.5244ZM1427.03 -10.9675C1439.69 11.8706 1431.61 40.6483 1408.84 53.2695L1402.54 41.8995C1418.94 32.8047 1424.88 11.9763 1415.66 -4.665L1427.03 -10.9675ZM1408.84 53.2695L1401.48 57.3471L1395.18 45.977L1402.54 41.8995L1408.84 53.2695ZM1401.48 57.3471C1378.71 69.9676 1350.03 61.57 1337.37 38.7318L1348.74 32.4293C1357.96 49.0705 1378.77 55.0712 1395.18 45.977L1401.48 57.3471ZM1337.37 38.7318C1328.14 22.0905 1307.33 16.0894 1290.93 25.1841L1284.62 13.814C1307.39 1.19283 1336.08 9.59118 1348.74 32.4293L1337.37 38.7318ZM1290.93 25.1841L1282.78 29.6985L1276.48 18.3284L1284.62 13.814L1290.93 25.1841ZM1282.78 29.6985C1261.88 41.2863 1254.33 67.8108 1266.07 88.9846L1254.7 95.2871C1239.52 67.9165 1249.21 33.4427 1276.48 18.3284L1282.78 29.6985ZM1266.07 88.9846L1278.69 111.753L1267.32 118.056L1254.7 95.2871L1266.07 88.9846ZM1278.69 111.753L1297.18 145.111L1285.81 151.414L1267.32 118.056L1278.69 111.753ZM1249.36 359.786L1236.38 336.367L1247.75 330.065L1260.73 353.484L1249.36 359.786ZM1236.38 336.367C1207.82 284.841 1226.38 219.933 1277.86 191.397L1284.16 202.767C1238.98 227.815 1222.66 284.805 1247.75 330.065L1236.38 336.367Z" fill="#FFB017"/>
</g>
</g>
<defs>
<clipPath id="clip0">
<rect width="1378.68" height="719.843" transform="matrix(-0.529919 -0.848048 -0.848048 0.529919 340.466 678)" fill="white"/>
</clipPath>
<clipPath id="clip1">
<rect width="1378.68" height="719.843" transform="matrix(-0.48481 -0.87462 -0.87462 0.48481 2579.93 713)" fill="white"/>
</clipPath>
</defs>
</svg>
