<svg width="155" height="155" viewBox="0 0 155 155" fill="none" xmlns="http://www.w3.org/2000/svg">
<g clip-path="url(#clip0)">
<path d="M154.488 77.696C154.488 35.0685 119.932 0.512024 77.304 0.512024C34.6764 0.512024 0.119995 35.0685 0.119995 77.696C0.119995 120.324 34.6764 154.88 77.304 154.88C119.932 154.88 154.488 120.324 154.488 77.696Z" fill="#E91E63"/>
<path d="M77.304 7.74802C91.1384 7.74802 104.662 11.8504 116.165 19.5364C127.668 27.2224 136.633 38.1468 141.928 50.9281C147.222 63.7094 148.607 77.7736 145.908 91.3422C143.209 104.911 136.547 117.374 126.765 127.157C116.982 136.939 104.519 143.601 90.9502 146.3C77.3816 148.999 63.3174 147.614 50.5361 142.32C37.7547 137.025 26.8304 128.06 19.1444 116.557C11.4584 105.054 7.35601 91.5304 7.35601 77.696C7.35601 59.1447 14.7255 41.3531 27.8433 28.2353C40.9611 15.1175 58.7527 7.74802 77.304 7.74802ZM77.304 0.512024C62.0385 0.512024 47.1157 5.03879 34.4229 13.5199C21.73 22.001 11.8372 34.0555 5.9953 48.159C0.153422 62.2625 -1.37508 77.7816 1.60308 92.7539C4.58124 107.726 11.9323 121.479 22.7267 132.273C33.5211 143.068 47.2739 150.419 62.2462 153.397C77.2184 156.375 92.7375 154.847 106.841 149.005C120.945 143.163 132.999 133.27 141.48 120.577C149.961 107.884 154.488 92.9616 154.488 77.696C154.488 57.2256 146.356 37.5935 131.881 23.1187C117.407 8.64389 97.7745 0.512024 77.304 0.512024V0.512024Z" fill="#000033"/>
<path d="M44.332 104.228C38.9625 104.228 33.7135 102.636 29.2482 99.6542C24.783 96.6721 21.3019 92.4332 19.2449 87.4734C17.1879 82.5135 16.6472 77.0552 17.6913 71.7881C18.7353 66.5211 21.3172 61.6817 25.1106 57.8815C28.9041 54.0814 33.7388 51.4909 39.004 50.4375C44.2692 49.3841 49.7285 49.9151 54.692 51.9633C59.6555 54.0115 63.9005 57.4851 66.8906 61.945C69.8806 66.405 71.4816 71.6511 71.4911 77.0207C71.4943 80.5904 70.7943 84.1258 69.4312 87.4251C68.068 90.7243 66.0684 93.7227 63.5464 96.2492C61.0244 98.7756 58.0296 100.781 54.7327 102.15C51.4359 103.519 47.9018 104.225 44.332 104.228ZM44.332 55.988C40.1626 55.988 36.0868 57.2244 32.6201 59.5408C29.1534 61.8572 26.4514 65.1496 24.8558 69.0016C23.2602 72.8536 22.8428 77.0923 23.6562 81.1816C24.4696 85.2709 26.4774 89.0271 29.4256 91.9753C32.3738 94.9235 36.13 96.9313 40.2193 97.7447C44.3086 98.5581 48.5473 98.1407 52.3993 96.5451C56.2513 94.9495 59.5437 92.2475 61.8601 88.7808C64.1765 85.3141 65.4129 81.2383 65.4129 77.0689C65.4065 71.4799 63.1834 66.1216 59.2314 62.1695C55.2793 58.2175 49.921 55.9944 44.332 55.988Z" fill="#000033"/>
<path d="M111.072 104.228C105.705 104.218 100.46 102.619 96.0014 99.6308C91.5425 96.6428 88.0689 92.4007 86.0193 87.44C83.9697 82.4793 83.4359 77.0225 84.4854 71.7586C85.5348 66.4948 88.1205 61.6599 91.9159 57.8646C95.7112 54.0692 100.546 51.4835 105.81 50.434C111.074 49.3846 116.531 49.9183 121.491 51.968C126.452 54.0176 130.694 57.4912 133.682 61.9501C136.67 66.4089 138.27 71.6532 138.279 77.0207C138.283 80.5945 137.581 84.1338 136.215 87.4362C134.849 90.7386 132.845 93.7392 130.318 96.2662C127.791 98.7933 124.79 100.797 121.488 102.163C118.185 103.53 114.646 104.231 111.072 104.228ZM111.072 55.988C106.903 55.988 102.827 57.2244 99.3601 59.5408C95.8933 61.8572 93.1914 65.1496 91.5958 69.0016C90.0002 72.8536 89.5828 77.0923 90.3962 81.1816C91.2096 85.2709 93.2173 89.0271 96.1656 91.9753C99.1138 94.9235 102.87 96.9313 106.959 97.7447C111.049 98.5581 115.287 98.1407 119.139 96.5451C122.991 94.9495 126.284 92.2475 128.6 88.7808C130.917 85.3141 132.153 81.2383 132.153 77.0689C132.146 71.4799 129.923 66.1216 125.971 62.1695C122.019 58.2175 116.661 55.9944 111.072 55.988Z" fill="#000033"/>
<path d="M76.2185 42.5532C72.7558 42.53 69.4073 41.3116 66.7394 39.104C64.1783 37.034 62.544 34.0317 62.1957 30.7571C61.8475 27.4825 62.8137 24.2036 64.8821 21.6411C65.7276 20.5841 66.7745 19.7054 67.9621 19.056C69.1498 18.4066 70.4545 17.9994 71.8007 17.858C73.1469 17.7167 74.5077 17.844 75.8043 18.2325C77.101 18.6211 78.3075 19.2632 79.3541 20.1216C81.0963 21.5382 82.2064 23.5872 82.4415 25.8203C82.6765 28.0533 82.0174 30.2886 80.6084 32.0369C79.4313 33.4953 77.723 34.4264 75.8594 34.6255C73.9958 34.8245 72.1295 34.2751 70.6709 33.0981C69.4441 32.1057 68.661 30.667 68.4937 29.0979C68.3264 27.5288 68.7885 25.9573 69.7785 24.7285C70.1949 24.2137 70.7087 23.7859 71.2905 23.4697C71.8723 23.1535 72.5107 22.955 73.1692 22.8856C73.8278 22.8161 74.4935 22.8771 75.1285 23.065C75.7634 23.253 76.3551 23.5641 76.8698 23.9808C77.7649 24.704 78.3363 25.7529 78.4584 26.8972C78.5805 28.0414 78.2433 29.1873 77.521 30.0831C77.2779 30.3838 76.9254 30.5756 76.5409 30.6163C76.1564 30.657 75.7715 30.5433 75.4708 30.3002C75.1702 30.0571 74.9784 29.7046 74.9377 29.3201C74.897 28.9356 75.0107 28.5507 75.2537 28.25C75.4528 27.9435 75.5262 27.5721 75.4589 27.2128C75.3915 26.8536 75.1885 26.5341 74.8919 26.3204C74.6752 26.1441 74.4257 26.0124 74.1579 25.9327C73.8902 25.853 73.6093 25.827 73.3314 25.8562C73.0535 25.8853 72.7841 25.969 72.5387 26.1025C72.2932 26.236 72.0765 26.4166 71.9011 26.634C71.6578 26.9519 71.4798 27.3148 71.3772 27.7018C71.2746 28.0888 71.2495 28.4922 71.3033 28.8889C71.3571 29.2856 71.4887 29.6678 71.6906 30.0135C71.8926 30.3591 72.1608 30.6615 72.4799 30.9032C72.9042 31.2456 73.3919 31.501 73.915 31.6548C74.4381 31.8087 74.9863 31.8578 75.5285 31.7996C76.0706 31.7414 76.5959 31.5768 77.0744 31.3154C77.5528 31.054 77.9751 30.7008 78.317 30.2761C78.763 29.6984 79.0906 29.0384 79.2811 28.3339C79.4716 27.6294 79.5212 26.8942 79.4271 26.1705C79.333 25.4468 79.0971 24.7487 78.7327 24.1164C78.3684 23.484 77.8828 22.9297 77.3039 22.4853C76.5619 21.873 75.7051 21.4148 74.7838 21.1376C73.8626 20.8603 72.8953 20.7696 71.9385 20.8707C70.9817 20.9717 70.0547 21.2626 69.2117 21.7262C68.3687 22.1898 67.6266 22.8169 67.0288 23.5707C65.4459 25.5316 64.7065 28.0408 64.9734 30.5467C65.2402 33.0525 66.4915 35.3498 68.4519 36.9332C69.7014 37.9421 71.1375 38.695 72.678 39.1489C74.2185 39.6028 75.8334 39.7488 77.4304 39.5786C79.0273 39.4084 80.5751 38.9253 81.9854 38.1569C83.3956 37.3884 84.6407 36.3497 85.6495 35.1001C86.9384 33.4964 87.8985 31.6542 88.475 29.6791C89.0514 27.704 89.2328 25.6346 89.0087 23.5893C88.7847 21.544 88.1597 19.5629 87.1694 17.7594C86.1791 15.9559 84.843 14.3653 83.2375 13.0785C83.0886 12.9582 82.9649 12.8097 82.8734 12.6415C82.7819 12.4733 82.7245 12.2888 82.7043 12.0984C82.6842 11.908 82.7017 11.7155 82.7559 11.5319C82.8102 11.3483 82.9 11.1772 83.0204 11.0283C83.1407 10.8795 83.2893 10.7558 83.4574 10.6643C83.6256 10.5728 83.8101 10.5154 84.0005 10.4952C84.1909 10.475 84.3834 10.4926 84.567 10.5468C84.7506 10.601 84.9217 10.6909 85.0706 10.8113C88.9264 13.8829 91.4049 18.3599 91.9612 23.2581C92.5175 28.1564 91.1062 33.0751 88.0373 36.9332C86.7917 38.4848 85.2507 39.7741 83.5035 40.7263C81.7564 41.6785 79.8378 42.2749 77.8587 42.4808C77.3136 42.534 76.7662 42.5582 76.2185 42.5532Z" fill="#000033"/>
<path d="M77.1351 139.178C66.914 139.162 56.8817 136.423 48.0705 131.242L46.358 130.229L46.5027 128.227C47.0366 120.461 50.4985 113.186 56.189 107.874C61.8794 102.561 69.3742 99.6061 77.1592 99.6061C84.9442 99.6061 92.439 102.561 98.1294 107.874C103.82 113.186 107.282 120.461 107.816 128.227L107.96 130.229L106.248 131.242C97.4226 136.431 87.3726 139.17 77.1351 139.178ZM53.1839 126.732C60.5894 130.624 68.8297 132.657 77.1954 132.657C85.5611 132.657 93.8014 130.624 101.207 126.732C100.298 121.017 97.3814 115.814 92.9801 112.057C88.5789 108.3 82.982 106.236 77.1954 106.236C71.4088 106.236 65.8119 108.3 61.4107 112.057C57.0094 115.814 54.0924 121.017 53.1839 126.732Z" fill="#000033"/>
<path d="M77.1351 139.178C68.6627 139.188 60.2927 137.325 52.6244 133.722C44.9561 130.12 38.1791 124.866 32.7785 118.338C32.5092 118.014 32.3066 117.639 32.1821 117.236C32.0576 116.833 32.0137 116.409 32.0529 115.99C32.132 115.141 32.5449 114.359 33.2006 113.816C33.8563 113.272 34.7011 113.011 35.5492 113.09C35.9692 113.129 36.3773 113.251 36.7503 113.448C37.1233 113.645 37.4538 113.913 37.7231 114.238C42.5254 120.047 48.5515 124.724 55.3707 127.934C62.19 131.145 69.6342 132.809 77.1713 132.809C84.7085 132.809 92.1526 131.145 98.9719 127.934C105.791 124.724 111.817 120.047 116.62 114.238C117.163 113.579 117.947 113.163 118.797 113.082C119.647 113 120.495 113.26 121.154 113.804C121.813 114.347 122.229 115.131 122.31 115.981C122.392 116.831 122.132 117.679 121.588 118.338C116.178 124.88 109.386 130.142 101.7 133.745C94.0135 137.349 85.6241 139.204 77.1351 139.178Z" fill="#000033"/>
<path d="M44.332 98.1016C55.9747 98.1016 65.4129 88.6633 65.4129 77.0207C65.4129 65.378 55.9747 55.9398 44.332 55.9398C32.6894 55.9398 23.2511 65.378 23.2511 77.0207C23.2511 88.6633 32.6894 98.1016 44.332 98.1016Z" fill="white"/>
<path d="M111.12 98.1016C122.763 98.1016 132.201 88.6633 132.201 77.0207C132.201 65.378 122.763 55.9398 111.12 55.9398C99.4776 55.9398 90.0394 65.378 90.0394 77.0207C90.0394 88.6633 99.4776 98.1016 111.12 98.1016Z" fill="white"/>
<path d="M47.1058 91.8786C55.3249 91.8786 61.9878 85.2157 61.9878 76.9965C61.9878 68.7774 55.3249 62.1145 47.1058 62.1145C38.8867 62.1145 32.2238 68.7774 32.2238 76.9965C32.2238 85.2157 38.8867 91.8786 47.1058 91.8786Z" fill="#000033"/>
<path d="M107.936 91.8786C116.156 91.8786 122.818 85.2157 122.818 76.9965C122.818 68.7774 116.156 62.1145 107.936 62.1145C99.7173 62.1145 93.0544 68.7774 93.0544 76.9965C93.0544 85.2157 99.7173 91.8786 107.936 91.8786Z" fill="#000033"/>
<path d="M53.184 126.732C60.5894 130.624 68.8298 132.657 77.1954 132.657C85.5611 132.657 93.8015 130.624 101.207 126.732C100.298 121.017 97.3814 115.814 92.9802 112.057C88.5789 108.3 82.9821 106.236 77.1954 106.236C71.4088 106.236 65.8119 108.3 61.4107 112.057C57.0095 115.814 54.0925 121.017 53.184 126.732Z" fill="white"/>
<path d="M87.3138 126.756C90.7906 126.756 93.6091 123.938 93.6091 120.461C93.6091 116.984 90.7906 114.165 87.3138 114.165C83.837 114.165 81.0185 116.984 81.0185 120.461C81.0185 123.938 83.837 126.756 87.3138 126.756Z" fill="#000033"/>
<path d="M67.2701 126.756C70.7469 126.756 73.5654 123.938 73.5654 120.461C73.5654 116.984 70.7469 114.165 67.2701 114.165C63.7933 114.165 60.9747 116.984 60.9747 120.461C60.9747 123.938 63.7933 126.756 67.2701 126.756Z" fill="#000033"/>
</g>
<defs>
<clipPath id="clip0">
<rect x="0.119995" y="0.512024" width="154.368" height="154.368" fill="white"/>
</clipPath>
</defs>
</svg>
